{
  "accessors": [
    {
      "bufferView": 2,
      "componentType": 5126,
      "count": 4577,
      "max": [
        0.6331932544708252,
        0.4031708240509033,
        0.2572472095489502
      ],
      "min": [
        -0.6224687099456787,
        -0.6500626802444458,
        -0.3346107304096222
      ],
      "type": "VEC3"
    },
    {
      "bufferView": 2,
      "byteOffset": 54924,
      "componentType": 5126,
      "count": 4577,
      "max": [
        0.0,
        1.0,
        -0.0
      ],
      "min": [
        0.0,
        1.0,
        -0.0
      ],
      "type": "VEC3"
    },
    {
      "bufferView": 1,
      "componentType": 5126,
      "count": 4577,
      "max": [
        1.0,
        1.0000001192092896
      ],
      "min": [
        0.0,
        0.0
      ],
      "type": "VEC2"
    },
    {
      "bufferView": 0,
      "componentType": 5125,
      "count": 22620,
      "type": "SCALAR"
    },
    {
      "bufferView": 2,
      "byteOffset": 109848,
      "componentType": 5126,
      "count": 5132,
      "max": [
        0.6367316246032715,
        0.32238268852233887,
        0.2414676696062088
      ],
      "min": [
        -0.626007080078125,
        -1.3269004821777344,
        -0.3367207944393158
      ],
      "type": "VEC3"
    },
    {
      "bufferView": 2,
      "byteOffset": 171432,
      "componentType": 5126,
      "count": 5132,
      "max": [
        0.0,
        1.0,
        -0.0
      ],
      "min": [
        0.0,
        1.0,
        -0.0
      ],
      "type": "VEC3"
    },
    {
      "bufferView": 1,
      "byteOffset": 36616,
      "componentType": 5126,
      "count": 5132,
      "max": [
        1.0,
        1.000000238418579
      ],
      "min": [
        0.0,
        0.0
      ],
      "type": "VEC2"
    },
    {
      "bufferView": 0,
      "byteOffset": 90480,
      "componentType": 5125,
      "count": 26892,
      "type": "SCALAR"
    },
    {
      "bufferView": 2,
      "byteOffset": 233016,
      "componentType": 5126,
      "count": 13374,
      "max": [
        0.6931623220443726,
        0.4282810688018799,
        0.23896171152591705
      ],
      "min": [
        -0.6824377775192261,
        -1.410648226737976,
        -0.3288481533527374
      ],
      "type": "VEC3"
    },
    {
      "bufferView": 2,
      "byteOffset": 393504,
      "componentType": 5126,
      "count": 13374,
      "max": [
        0.0,
        1.0,
        -0.0
      ],
      "min": [
        0.0,
        1.0,
        -0.0
      ],
      "type": "VEC3"
    },
    {
      "bufferView": 1,
      "byteOffset": 77672,
      "componentType": 5126,
      "count": 13374,
      "max": [
        1.000000238418579,
        1.000000238418579
      ],
      "min": [
        0.0,
        0.0
      ],
      "type": "VEC2"
    },
    {
      "bufferView": 0,
      "byteOffset": 198048,
      "componentType": 5125,
      "count": 64092,
      "type": "SCALAR"
    },
    {
      "bufferView": 2,
      "byteOffset": 553992,
      "componentType": 5126,
      "count": 13020,
      "max": [
        0.6983439326286316,
        0.4322751760482788,
        0.2608081102371216
      ],
      "min": [
        -0.6876194477081299,
        -1.4245045185089111,
        -0.3342130482196808
      ],
      "type": "VEC3"
    },
    {
      "bufferView": 2,
      "byteOffset": 710232,
      "componentType": 5126,
      "count": 13020,
      "max": [
        0.0,
        1.0,
        -0.0
      ],
      "min": [
        0.0,
        1.0,
        -0.0
      ],
      "type": "VEC3"
    },
    {
      "bufferView": 1,
      "byteOffset": 184664,
      "componentType": 5126,
      "count": 13020,
      "max": [
        1.0,
        1.000000238418579
      ],
      "min": [
        0.0,
        0.0
      ],
      "type": "VEC2"
    },
    {
      "bufferView": 0,
      "byteOffset": 454416,
      "componentType": 5125,
      "count": 61734,
      "type": "SCALAR"
    },
    {
      "bufferView": 2,
      "byteOffset": 866472,
      "componentType": 5126,
      "count": 5476,
      "max": [
        0.2107037454843521,
        0.31570160388946533,
        0.22797106206417084
      ],
      "min": [
        -0.2078239470720291,
        -1.4205577373504639,
        -0.17042122781276703
      ],
      "type": "VEC3"
    },
    {
      "bufferView": 2,
      "byteOffset": 932184,
      "componentType": 5126,
      "count": 5476,
      "max": [
        0.0,
        1.0,
        -0.0
      ],
      "min": [
        0.0,
        1.0,
        -0.0
      ],
      "type": "VEC3"
    },
    {
      "bufferView": 1,
      "byteOffset": 288824,
      "componentType": 5126,
      "count": 5476,
      "max": [
        0.8697916865348816,
        1.000000238418579
      ],
      "min": [
        0.0,
        0.0
      ],
      "type": "VEC2"
    },
    {
      "bufferView": 0,
      "byteOffset": 701352,
      "componentType": 5125,
      "count": 27792,
      "type": "SCALAR"
    },
    {
      "bufferView": 2,
      "byteOffset": 997896,
      "componentType": 5126,
      "count": 1118,
      "max": [
        0.1692497283220291,
        0.1297074556350708,
        0.24361981451511383
      ],
      "min": [
        -0.16769953072071075,
        -1.209637999534607,
        -0.08820436894893646
      ],
      "type": "VEC3"
    },
    {
      "bufferView": 2,
      "byteOffset": 1011312,
      "componentType": 5126,
      "count": 1118,
      "max": [
        0.0,
        1.0,
        -0.0
      ],
      "min": [
        0.0,
        1.0,
        -0.0
      ],
      "type": "VEC3"
    },
    {
      "bufferView": 1,
      "byteOffset": 332632,
      "componentType": 5126,
      "count": 1118,
      "max": [
        0.5927830934524536,
        0.9817782640457153
      ],
      "min": [
        0.0,
        0.0
      ],
      "type": "VEC2"
    },
    {
      "bufferView": 0,
      "byteOffset": 812520,
      "componentType": 5125,
      "count": 6474,
      "type": "SCALAR"
    },
    {
      "bufferView": 2,
      "byteOffset": 1024728,
      "componentType": 5126,
      "count": 1024,
      "max": [
        0.1733502894639969,
        -1.0055975914001465,
        0.03486720472574234
      ],
      "min": [
        -0.17180003225803375,
        -1.2136870622634888,
        -0.09233038127422333
      ],
      "type": "VEC3"
    },
    {
      "bufferView": 2,
      "byteOffset": 1037016,
      "componentType": 5126,
      "count": 1024,
      "max": [
        0.0,
        1.0,
        -0.0
      ],
      "min": [
        0.0,
        1.0,
        -0.0
      ],
      "type": "VEC3"
    },
    {
      "bufferView": 1,
      "byteOffset": 341576,
      "componentType": 5126,
      "count": 1024,
      "max": [
        0.0,
        0.0
      ],
      "min": [
        0.0,
        0.0
      ],
      "type": "VEC2"
    },
    {
      "bufferView": 0,
      "byteOffset": 838416,
      "componentType": 5125,
      "count": 6144,
      "type": "SCALAR"
    },
    {
      "bufferView": 2,
      "byteOffset": 1049304,
      "componentType": 5126,
      "count": 2366,
      "max": [
        0.10665374249219894,
        0.23881399631500244,
        0.1495799422264099
      ],
      "min": [
        -0.10298309475183487,
        0.03984999656677246,
        -0.000955650582909584
      ],
      "type": "VEC3"
    },
    {
      "bufferView": 2,
      "byteOffset": 1077696,
      "componentType": 5126,
      "count": 2366,
      "max": [
        0.0,
        1.0,
        -0.0
      ],
      "min": [
        0.0,
        1.0,
        -0.0
      ],
      "type": "VEC3"
    },
    {
      "bufferView": 1,
      "byteOffset": 349768,
      "componentType": 5126,
      "count": 2366,
      "max": [
        0.0,
        0.0
      ],
      "min": [
        0.0,
        0.0
      ],
      "type": "VEC2"
    },
    {
      "bufferView": 0,
      "byteOffset": 862992,
      "componentType": 5125,
      "count": 13440,
      "type": "SCALAR"
    },
    {
      "bufferView": 2,
      "byteOffset": 1106088,
      "componentType": 5126,
      "count": 2740,
      "max": [
        0.10665374249219894,
        0.23725950717926025,
        0.1513214111328125
      ],
      "min": [
        -0.10298309475183487,
        0.04033339023590088,
        0.0009092967957258224
      ],
      "type": "VEC3"
    },
    {
      "bufferView": 2,
      "byteOffset": 1138968,
      "componentType": 5126,
      "count": 2740,
      "max": [
        0.0,
        1.0,
        -0.0
      ],
      "min": [
        0.0,
        1.0,
        -0.0
      ],
      "type": "VEC3"
    },
    {
      "bufferView": 1,
      "byteOffset": 368696,
      "componentType": 5126,
      "count": 2740,
      "max": [
        0.0,
        0.0
      ],
      "min": [
        0.0,
        0.0
      ],
      "type": "VEC2"
    },
    {
      "bufferView": 0,
      "byteOffset": 916752,
      "componentType": 5125,
      "count": 15984,
      "type": "SCALAR"
    },
    {
      "bufferView": 2,
      "byteOffset": 1171848,
      "componentType": 5126,
      "count": 220,
      "max": [
        0.21828369796276093,
        0.32238268852233887,
        0.23978815972805023
      ],
      "min": [
        -0.2154039889574051,
        0.04922771453857422,
        0.01249404065310955
      ],
      "type": "VEC3"
    },
    {
      "bufferView": 2,
      "byteOffset": 1174488,
      "componentType": 5126,
      "count": 220,
      "max": [
        0.0,
        1.0,
        -0.0
      ],
      "min": [
        0.0,
        1.0,
        -0.0
      ],
      "type": "VEC3"
    },
    {
      "bufferView": 1,
      "byteOffset": 390616,
      "componentType": 5126,
      "count": 220,
      "max": [
        0.8750002384185791,
        1.000000238418579
      ],
      "min": [
        0.4375,
        0.0
      ],
      "type": "VEC2"
    },
    {
      "bufferView": 0,
      "byteOffset": 980688,
      "componentType": 5125,
      "count": 984,
      "type": "SCALAR"
    },
    {
      "bufferView": 2,
      "byteOffset": 1177128,
      "componentType": 5126,
      "count": 512,
      "max": [
        0.06689071655273438,
        0.08752143383026123,
        0.06091301143169403
      ],
      "min": [
        -0.06576114892959595,
        -0.11239480972290039,
        -0.058034803718328476
      ],
      "type": "VEC3"
    },
    {
      "bufferView": 2,
      "byteOffset": 1183272,
      "componentType": 5126,
      "count": 512,
      "max": [
        0.0,
        1.0,
        -0.0
      ],
      "min": [
        0.0,
        1.0,
        -0.0
      ],
      "type": "VEC3"
    },
    {
      "bufferView": 1,
      "byteOffset": 392376,
      "componentType": 5126,
      "count": 512,
      "max": [
        0.0,
        0.0
      ],
      "min": [
        0.0,
        0.0
      ],
      "type": "VEC2"
    },
    {
      "bufferView": 0,
      "byteOffset": 984624,
      "componentType": 5125,
      "count": 3072,
      "type": "SCALAR"
    },
    {
      "bufferView": 2,
      "byteOffset": 1189416,
      "componentType": 5126,
      "count": 512,
      "max": [
        0.06689618527889252,
        0.0873866081237793,
        0.06089349091053009
      ],
      "min": [
        -0.0657556802034378,
        -0.11252963542938232,
        -0.058054324239492416
      ],
      "type": "VEC3"
    },
    {
      "bufferView": 2,
      "byteOffset": 1195560,
      "componentType": 5126,
      "count": 512,
      "max": [
        0.0,
        1.0,
        -0.0
      ],
      "min": [
        0.0,
        1.0,
        -0.0
      ],
      "type": "VEC3"
    },
    {
      "bufferView": 1,
      "byteOffset": 396472,
      "componentType": 5126,
      "count": 512,
      "max": [
        0.0,
        0.0
      ],
      "min": [
        0.0,
        0.0
      ],
      "type": "VEC2"
    },
    {
      "bufferView": 0,
      "byteOffset": 996912,
      "componentType": 5125,
      "count": 3072,
      "type": "SCALAR"
    },
    {
      "bufferView": 2,
      "byteOffset": 1201704,
      "componentType": 5126,
      "count": 512,
      "max": [
        0.07101254165172577,
        0.09151071310043335,
        0.06501724570989609
      ],
      "min": [
        -0.0698561817407608,
        -0.11657857894897461,
        -0.06218032166361809
      ],
      "type": "VEC3"
    },
    {
      "bufferView": 2,
      "byteOffset": 1207848,
      "componentType": 5126,
      "count": 512,
      "max": [
        0.0,
        1.0,
        -0.0
      ],
      "min": [
        0.0,
        1.0,
        -0.0
      ],
      "type": "VEC3"
    },
    {
      "bufferView": 1,
      "byteOffset": 400568,
      "componentType": 5126,
      "count": 512,
      "max": [
        0.0,
        0.0
      ],
      "min": [
        0.0,
        0.0
      ],
      "type": "VEC2"
    },
    {
      "bufferView": 0,
      "byteOffset": 1009200,
      "componentType": 5125,
      "count": 3072,
      "type": "SCALAR"
    }
  ],
  "asset": {
    "extras": {
      "author": "Algur (https://sketchfab.com/Algur)",
      "license": "CC-BY-4.0 (http://creativecommons.org/licenses/by/4.0/)",
      "source": "https://sketchfab.com/3d-models/loli-astronaut-t-pose-f27d92fd8b6f4ccc8827fdc3f81af473",
      "title": "Loli Astronaut T-pose"
    },
    "generator": "Sketchfab-12.89.0",
    "version": "2.0"
  },
  "bufferViews": [
    {
      "buffer": 0,
      "byteLength": 1021488,
      "name": "floatBufferViews",
      "target": 34963
    },
    {
      "buffer": 0,
      "byteLength": 404664,
      "byteOffset": 1021488,
      "byteStride": 8,
      "name": "floatBufferViews",
      "target": 34962
    },
    {
      "buffer": 0,
      "byteLength": 1213992,
      "byteOffset": 1426152,
      "byteStride": 12,
      "name": "floatBufferViews",
      "target": 34962
    }
  ],
  "buffers": [
    {
      "byteLength": 2640144,
      "uri": "scene.bin"
    }
  ],
  "materials": [
    {
      "doubleSided": true,
      "name": "Material.003",
      "pbrMetallicRoughness": {
        "baseColorFactor": [
          0.0742944,
          0.2044,
          0.420025,
          1.0
        ],
        "metallicFactor": 0.0
      }
    },
    {
      "emissiveFactor": [
        0.009859579999999998,
        0.01903860000000001,
        0.04930449999999999
      ],
      "name": "Material.007",
      "pbrMetallicRoughness": {
        "baseColorFactor": [
          0.009615739678686761,
          0.009615739678686761,
          0.009615739678686761,
          1.0
        ]
      }
    },
    {
      "doubleSided": true,
      "name": "Material.002",
      "pbrMetallicRoughness": {
        "metallicFactor": 0.0,
        "roughnessFactor": 0.5
      }
    },
    {
      "emissiveFactor": [
        0.0399553,
        0.0379862,
        0.037537
      ],
      "name": "Material.008",
      "pbrMetallicRoughness": {
        "baseColorFactor": [
          0.04011232605020126,
          0.03977201256687656,
          0.03977201256687656,
          1.0
        ]
      }
    },
    {
      "doubleSided": true,
      "name": "Material",
      "pbrMetallicRoughness": {
        "baseColorFactor": [
          0.0146962,
          0.0235401,
          0.132862,
          1.0
        ],
        "metallicFactor": 0.0,
        "roughnessFactor": 0.911811
      }
    },
    {
      "doubleSided": true,
      "name": "Material.001",
      "pbrMetallicRoughness": {
        "baseColorFactor": [
          0.8,
          0.174846,
          0.226288,
          1.0
        ],
        "metallicFactor": 0.0
      }
    },
    {
      "emissiveFactor": [
        0.14268799999999995,
        0.048604299999999975,
        0.05609440000000004
      ],
      "name": "Material.009",
      "pbrMetallicRoughness": {
        "baseColorFactor": [
          0.028863290822882727,
          0.028863290822882727,
          0.028863290822882727,
          1.0
        ]
      }
    },
    {
      "doubleSided": true,
      "name": "Material.004",
      "pbrMetallicRoughness": {
        "baseColorFactor": [
          0.2669722422011191,
          0.20660147535687723,
          0.12584570924406627,
          1.0
        ],
        "metallicFactor": 0.0,
        "roughnessFactor": 0.5
      }
    },
    {
      "emissiveFactor": [
        0.09287579999999995,
        0.06188529999999999,
        0.0445131
      ],
      "name": "Material.006",
      "pbrMetallicRoughness": {
        "baseColorFactor": [
          0.18648417912592063,
          0.18648417912592063,
          0.18648417912592063,
          1.0
        ]
      }
    },
    {
      "alphaMode": "BLEND",
      "name": "Material.012",
      "pbrMetallicRoughness": {
        "baseColorFactor": [
          1.0,
          1.0,
          1.0,
          0.0
        ]
      }
    }
  ],
  "meshes": [
    {
      "name": "Object_0",
      "primitives": [
        {
          "attributes": {
            "NORMAL": 1,
            "POSITION": 0,
            "TEXCOORD_0": 2
          },
          "indices": 3,
          "material": 0,
          "mode": 4
        }
      ]
    },
    {
      "name": "Object_1",
      "primitives": [
        {
          "attributes": {
            "NORMAL": 5,
            "POSITION": 4,
            "TEXCOORD_0": 6
          },
          "indices": 7,
          "material": 1,
          "mode": 4
        }
      ]
    },
    {
      "name": "Object_2",
      "primitives": [
        {
          "attributes": {
            "NORMAL": 9,
            "POSITION": 8,
            "TEXCOORD_0": 10
          },
          "indices": 11,
          "material": 2,
          "mode": 4
        }
      ]
    },
    {
      "name": "Object_3",
      "primitives": [
        {
          "attributes": {
            "NORMAL": 13,
            "POSITION": 12,
            "TEXCOORD_0": 14
          },
          "indices": 15,
          "material": 3,
          "mode": 4
        }
      ]
    },
    {
      "name": "Object_4",
      "primitives": [
        {
          "attributes": {
            "NORMAL": 17,
            "POSITION": 16,
            "TEXCOORD_0": 18
          },
          "indices": 19,
          "material": 4,
          "mode": 4
        }
      ]
    },
    {
      "name": "Object_5",
      "primitives": [
        {
          "attributes": {
            "NORMAL": 21,
            "POSITION": 20,
            "TEXCOORD_0": 22
          },
          "indices": 23,
          "material": 5,
          "mode": 4
        }
      ]
    },
    {
      "name": "Object_6",
      "primitives": [
        {
          "attributes": {
            "NORMAL": 25,
            "POSITION": 24,
            "TEXCOORD_0": 26
          },
          "indices": 27,
          "material": 6,
          "mode": 4
        }
      ]
    },
    {
      "name": "Object_7",
      "primitives": [
        {
          "attributes": {
            "NORMAL": 29,
            "POSITION": 28,
            "TEXCOORD_0": 30
          },
          "indices": 31,
          "material": 7,
          "mode": 4
        }
      ]
    },
    {
      "name": "Object_8",
      "primitives": [
        {
          "attributes": {
            "NORMAL": 33,
            "POSITION": 32,
            "TEXCOORD_0": 34
          },
          "indices": 35,
          "material": 8,
          "mode": 4
        }
      ]
    },
    {
      "name": "Object_9",
      "primitives": [
        {
          "attributes": {
            "NORMAL": 37,
            "POSITION": 36,
            "TEXCOORD_0": 38
          },
          "indices": 39,
          "material": 9,
          "mode": 4
        }
      ]
    },
    {
      "name": "Object_10",
      "primitives": [
        {
          "attributes": {
            "NORMAL": 41,
            "POSITION": 40,
            "TEXCOORD_0": 42
          },
          "indices": 43,
          "material": 5,
          "mode": 4
        }
      ]
    },
    {
      "name": "Object_11",
      "primitives": [
        {
          "attributes": {
            "NORMAL": 45,
            "POSITION": 44,
            "TEXCOORD_0": 46
          },
          "indices": 47,
          "material": 5,
          "mode": 4
        }
      ]
    },
    {
      "name": "Object_12",
      "primitives": [
        {
          "attributes": {
            "NORMAL": 49,
            "POSITION": 48,
            "TEXCOORD_0": 50
          },
          "indices": 51,
          "material": 6,
          "mode": 4
        }
      ]
    }
  ],
  "nodes": [
    {
      "children": [
        1
      ],
      "matrix": [
        1.0,
        0.0,
        0.0,
        0.0,
        0.0,
        2.220446049250313e-16,
        -1.0,
        0.0,
        0.0,
        1.0,
        2.220446049250313e-16,
        0.0,
        0.0,
        0.0,
        0.0,
        1.0
      ],
      "name": "Sketchfab_model"
    },
    {
      "children": [
        2
      ],
      "name": "root"
    },
    {
      "children": [
        3,
        14,
        16
      ],
      "matrix": [
        1.0,
        0.0,
        0.0,
        0.0,
        0.0,
        2.220446049250313e-16,
        1.0,
        0.0,
        0.0,
        -1.0,
        2.220446049250313e-16,
        0.0,
        0.0,
        0.0,
        0.0,
        1.0
      ],
      "name": "GLTF_SceneRootNode"
    },
    {
      "children": [
        4,
        5,
        6,
        7,
        8,
        9,
        10,
        11,
        12,
        13
      ],
      "matrix": [
        1.0,
        0.0,
        0.0,
        0.0,
        0.0,
        1.0,
        0.0,
        0.0,
        0.0,
        0.0,
        1.0,
        0.0,
        -0.0014399475185200572,
        1.4239124059677124,
        -0.030698930844664574,
        1.0
      ],
      "name": "Cube.001_0"
    },
    {
      "mesh": 0,
      "name": "Object_4"
    },
    {
      "mesh": 1,
      "name": "Object_5"
    },
    {
      "mesh": 2,
      "name": "Object_6"
    },
    {
      "mesh": 3,
      "name": "Object_7"
    },
    {
      "mesh": 4,
      "name": "Object_8"
    },
    {
      "mesh": 5,
      "name": "Object_9"
    },
    {
      "mesh": 6,
      "name": "Object_10"
    },
    {
      "mesh": 7,
      "name": "Object_11"
    },
    {
      "mesh": 8,
      "name": "Object_12"
    },
    {
      "mesh": 9,
      "name": "Object_13"
    },
    {
      "children": [
        15
      ],
      "matrix": [
        1.0,
        0.0,
        0.0,
        0.0,
        0.0,
        1.0,
        0.0,
        0.0,
        0.0,
        0.0,
        1.0,
        0.0,
        -0.10337833315134048,
        0.3266693353652954,
        -0.06086850166320801,
        1.0
      ],
      "name": "Cube.024_1"
    },
    {
      "mesh": 10,
      "name": "Object_15"
    },
    {
      "children": [
        17,
        18
      ],
      "matrix": [
        1.0,
        0.0,
        0.0,
        0.0,
        0.0,
        1.0,
        0.0,
        0.0,
        0.0,
        0.0,
        1.0,
        0.0,
        -0.10338380187749863,
        0.32680416107177734,
        -0.06084898114204407,
        1.0
      ],
      "name": "Cube.025_2"
    },
    {
      "mesh": 11,
      "name": "Object_17"
    },
    {
      "mesh": 12,
      "name": "Object_18"
    }
  ],
  "scene": 0,
  "scenes": [
    {
      "name": "Sketchfab_Scene",
      "nodes": [
        0
      ]
    }
  ]
}
